<svg xmlns="http://www.w3.org/2000/svg" xmlns:xlink="http://www.w3.org/1999/xlink" viewBox="0 0 142.11 142.22">
    <defs>
        <style>.cls-1{fill:url(#linear-gradient);}</style>
        <linearGradient id="linear-gradient" x1="-373.03" y1="-251.81" x2="-340.14" y2="-387.01" gradientTransform="matrix(0.66, 0.76, -0.76, 0.66, 62.8, 545.54)" gradientUnits="userSpaceOnUse">
            <stop offset="0" stop-color="#5a9efb" />
            <stop offset="0.26" stop-color="#75b2b1" />
            <stop offset="0.53" stop-color="#90c567" />
            <stop offset="0.77" stop-color="#acd14b" />
            <stop offset="1" stop-color="#c4dc34" />
        </linearGradient>
    </defs>
    <g id="Layer_2">
        <g id="OBJECTS">
            <path class="cls-1"
                d="M68.76,103.32a32,32,0,0,1-22.12-11,32.43,32.43,0,0,1-5-34.59A32.29,32.29,0,0,1,66.3,39.08l.53-.07a32.12,32.12,0,0,1,22,5.09A29.84,29.84,0,0,1,93,47.31l.24.23a27.15,27.15,0,0,1,2.26,2.34,27.43,27.43,0,0,1,2,2.55l.21.29a32.11,32.11,0,0,1,5.62,20.61L103,77.52l38.64,2.72.3-4.18A71,71,0,0,0,24.47,17.42a71.08,71.08,0,0,0-9.8,96.9c.81,1.07,1.71,2.16,2.73,3.34s2,2.21,2.92,3.17l.14.14c.1.1.2.21.25.25a70.75,70.75,0,0,0,45.36,20.72l4.16.28L73,103.6Zm65-32L115.19,70a68.54,68.54,0,0,0-14-53.93,62.81,62.81,0,0,1,32.57,55.23ZM30,23.74A62.35,62.35,0,0,1,81.81,9.34a59.65,59.65,0,0,1,25.63,43.48,39.84,39.84,0,0,0-3-5.09l-.11-.15A39,39,0,0,0,99,41.51l-.17-.17a39,39,0,0,0-5.42-4.25,40.48,40.48,0,0,0-27.17-6.45l-.25,0A68,68,0,0,0,9.72,58.21,62.39,62.39,0,0,1,20.27,34.32,61.43,61.43,0,0,1,30,23.74ZM46.74,128.86a61.73,61.73,0,0,1-20.09-13.54l-.13-.13-.24-.24a64.34,64.34,0,0,1-5-5.72A62.16,62.16,0,0,1,8.69,77.1,59.87,59.87,0,0,1,40.65,44,40,40,0,0,0,34,54.25a40.78,40.78,0,0,0,6.34,43.52A40.26,40.26,0,0,0,64,111.17l-1.55,22A61.82,61.82,0,0,1,46.74,128.86Z" />
        </g>
    </g>
</svg>
