<svg xmlns="http://www.w3.org/2000/svg" viewBox="0 0 9.7 11.1">
    <defs>
        <style>.cls-1{fill:#fff;}</style>
    </defs>
    <g id="Layer_2">
        <g id="OBJECTS">
            <path class="cls-1"
                d="M7.33,7.34a2.5,2.5,0,0,1-1.78.74A2.53,2.53,0,0,1,3.42,4.19l0,0a2.5,2.5,0,0,1,1.43-1A2.57,2.57,0,0,1,5.27,3h.56a2.46,2.46,0,0,1,1.5.73L7.57,4,9.7,1.86l-.23-.23A5.55,5.55,0,0,0,0,5.55,5.79,5.79,0,0,0,.14,6.81,5.56,5.56,0,0,0,2.26,10a5.5,5.5,0,0,0,3,1.07h.72A5.5,5.5,0,0,0,8,10.53,5.3,5.3,0,0,0,9.47,9.47l.23-.23L7.57,7.1ZM8.77,1.86l-1,1A5.38,5.38,0,0,0,3.85,1a4.87,4.87,0,0,1,4.92.9ZM.65,5.55a4.89,4.89,0,0,1,1.81-3.8,5.06,5.06,0,0,1,1.17-.14,4.74,4.74,0,0,1,2.71.86,2.46,2.46,0,0,0-.46-.08h0l-.32,0-.31,0h0a3.1,3.1,0,0,0-.53.1A3.16,3.16,0,0,0,2.92,3.76v0A5.34,5.34,0,0,0,1.52,7.37a5.46,5.46,0,0,0,.13,1.14A4.93,4.93,0,0,1,.78,6.66,5,5,0,0,1,.65,5.55ZM7.71,9.94a4.8,4.8,0,0,1-1.82.5H5.25a5,5,0,0,1-2.54-.9,4.7,4.7,0,0,1-.53-2.17A4.43,4.43,0,0,1,2.4,6a3,3,0,0,0,.26.92A3.19,3.19,0,0,0,5.55,8.73a3.13,3.13,0,0,0,2-.71L8.77,9.24A4.75,4.75,0,0,1,7.71,9.94Z" />
            <path class="cls-1" d="M4.08,5.51A1.53,1.53,0,1,0,5.6,4,1.53,1.53,0,0,0,4.08,5.51Zm2.4,0a.88.88,0,1,1-.88-.88A.87.87,0,0,1,6.48,5.51Z" />
        </g>
    </g>
</svg>
